<svg width="58" height="62" viewBox="0 0 58 62" fill="none" xmlns="http://www.w3.org/2000/svg">
<g clip-path="url(#clip0_10_14)">
<path d="M18.0353 20.9198L18.422 20.8888C18.562 20.8744 18.6959 20.8273 18.8114 20.7519L18.8086 20.7545C19.1787 21.948 19.6317 23.2035 20.1979 24.5184C20.9242 26.2389 21.6396 27.652 22.4405 29.016L22.3301 28.8093C22.2638 29.7497 22.1837 30.7158 22.0787 31.651C22.0327 32.2027 21.913 32.7469 21.7224 33.2708L21.7362 33.2243C21.7031 33.2372 21.6562 38.5976 21.6562 38.5976C21.6572 40.2608 22.2565 41.8754 23.3577 43.1814C24.4588 44.4874 25.9978 45.4088 27.7268 45.7973L27.7821 45.8077C27.8588 45.6212 27.9941 45.4607 28.17 45.3473C28.3459 45.2339 28.5544 45.1729 28.7681 45.1722H30.3534C30.5651 45.1748 30.7713 45.2358 30.9461 45.3475C31.121 45.4591 31.2568 45.6165 31.3366 45.7999L31.3394 45.8077C33.0831 45.4307 34.6396 44.5141 35.7569 43.2065C36.8743 41.8988 37.4869 40.2767 37.4957 38.6028V38.6002C37.4957 38.6002 37.399 33.263 37.3493 33.2268C37.1847 32.7275 37.0718 32.2145 37.0123 31.6949L37.0096 31.6562C36.9129 30.7158 36.8494 29.7729 36.7582 28.8145C37.4404 27.6623 38.1558 26.2518 38.7855 24.7974L38.8904 24.5236C39.4566 23.2087 39.8958 21.9558 40.2797 20.7597C40.3932 20.835 40.5253 20.8822 40.6636 20.8966H40.6663L41.0558 20.9276C41.5253 20.9741 41.9396 20.6124 41.9782 20.0518L42.3981 15.0634V15.0583C42.3978 14.8575 42.3195 14.6637 42.1777 14.513C42.0359 14.3623 41.8403 14.2651 41.6275 14.2393H41.575C41.9428 11.6418 41.715 9.00072 40.9066 6.49192L40.9425 6.62367C40.1635 5.00578 38.9787 3.58754 37.4887 2.48931C35.9986 1.39108 34.2473 0.645268 32.3834 0.31517L32.3116 0.304836C31.4079 0.135365 30.4904 0.0385667 29.569 0.0155029H29.511C28.5472 0.0316465 27.5872 0.13372 26.6442 0.320336L26.7436 0.304836C24.8806 0.628272 23.1276 1.36441 21.6313 2.45164C20.1349 3.53886 18.9388 4.94554 18.143 6.55392L18.1126 6.62367C17.3175 9.1228 17.1055 11.7525 17.4912 14.3349L17.4802 14.2393C17.2667 14.2609 17.0693 14.3553 16.9256 14.5045C16.782 14.6537 16.7021 14.8471 16.7013 15.0479V15.066L17.1211 20.0544C17.1598 20.6279 17.5796 20.9741 18.0325 20.9276L18.0353 20.9198Z" fill="#2DE15B"/>
<path d="M59.1489 53.9348C58.9556 46.0815 58.116 44.3042 57.663 43.1003C57.4835 42.6172 57.3371 39.3519 51.5702 37.2336C48.035 35.9316 43.4723 35.9057 39.6112 34.379V38.626C39.6072 40.8033 38.7938 42.9114 37.3103 44.5893C35.8269 46.2672 33.7658 47.4102 31.4801 47.8227L31.4166 47.833C31.3752 48.0621 31.2491 48.2704 31.0604 48.4215C30.8716 48.5726 30.6321 48.6569 30.3837 48.6597H30.334V51.863C30.334 53.3662 30.9724 54.8078 32.1088 55.8708C33.2452 56.9337 34.7865 57.5308 36.3936 57.5308C38.0007 57.5308 39.542 56.9337 40.6784 55.8708C41.8148 54.8078 42.4532 53.3662 42.4532 51.863V49.6258C41.6191 49.5114 40.8587 49.1151 40.3159 48.5117C39.7731 47.9083 39.4856 47.1399 39.5076 46.3516C39.5297 45.5633 39.8598 44.81 40.4356 44.234C41.0114 43.658 41.7929 43.2994 42.6323 43.226C43.4717 43.1525 44.3107 43.3694 44.9907 43.8355C45.6707 44.3016 46.1445 44.9846 46.3225 45.7554C46.5004 46.5261 46.3702 47.3312 45.9565 48.0182C45.5428 48.7052 44.8742 49.2266 44.0772 49.4838L44.0523 49.4915V51.9844C44.0523 53.885 43.2451 55.7077 41.8083 57.0517C40.3715 58.3956 38.4228 59.1506 36.3908 59.1506C34.3588 59.1506 32.4101 58.3956 30.9733 57.0517C29.5365 55.7077 28.7293 53.885 28.7293 51.9844V51.8552V51.8604V48.6287C28.4928 48.6136 28.2687 48.5243 28.0932 48.3752C27.9178 48.2261 27.8013 48.0259 27.7626 47.8072V47.802C25.4745 47.3938 23.4093 46.2542 21.9209 44.5782C20.4324 42.9023 19.6133 40.7944 19.604 38.6157V34.3351C15.7262 35.8928 11.136 35.9238 7.58138 37.2284C1.79795 39.3442 1.66538 42.6017 1.48862 43.0926C1.04672 44.3016 0.196049 46.0712 0.00271565 53.9297C-0.0304272 54.963 0.0027158 56.5466 3.33357 57.9312C10.5863 60.5921 19.9299 61.4187 29.1408 62.0129H30.0246C39.2549 61.4239 48.5846 60.5998 55.8319 57.9312C59.1489 56.5543 59.1793 54.9811 59.1489 53.9374V53.9348ZM18.6014 50.7315H15.16V53.9632H12.702V50.7418H9.26062V48.4427H12.702V45.2238H15.16V48.4427H18.6014V50.7315Z" fill="#2DE15B"/>
<path d="M44.8119 46.4096V46.407C44.8115 45.946 44.6154 45.504 44.2667 45.1782C43.918 44.8525 43.4453 44.6695 42.9524 44.6697C42.4596 44.6699 41.987 44.8531 41.6385 45.1792C41.2901 45.5052 41.0944 45.9473 41.0944 46.4083C41.0944 46.8693 41.2901 47.3114 41.6385 47.6374C41.987 47.9635 42.4596 48.1467 42.9524 48.1469C43.4453 48.147 43.918 47.9641 44.2667 47.6383C44.6154 47.3126 44.8115 46.8706 44.8119 46.4096Z" fill="#2DE15B"/>
</g>
<defs>
<clipPath id="clip0_10_14">
<rect width="58" height="62" fill="white"/>
</clipPath>
</defs>
</svg>
