<svg width="96" height="107" viewBox="0 0 96 107" fill="none" xmlns="http://www.w3.org/2000/svg">
<g clip-path="url(#clip0_83_85)">
<path d="M29.8514 36.1036L30.4914 36.0501C30.7232 36.0251 30.9448 35.9439 31.136 35.8138L31.1314 35.8183C31.744 37.878 32.4937 40.0448 33.4309 42.314C34.6331 45.2833 35.8171 47.722 37.1429 50.076L36.96 49.7193C36.8503 51.3422 36.7177 53.0096 36.544 54.6235C36.4679 55.5757 36.2698 56.5148 35.9543 57.4189L35.9771 57.3386C35.9223 57.3609 35.8446 66.612 35.8446 66.612C35.8463 69.4824 36.8382 72.2688 38.6609 74.5227C40.4835 76.7766 43.0307 78.3668 45.8926 79.0373L45.984 79.0552C46.1111 78.7333 46.3349 78.4564 46.6261 78.2607C46.9173 78.065 47.2624 77.9596 47.616 77.9584H50.24C50.5904 77.963 50.9317 78.0682 51.2211 78.2609C51.5106 78.4536 51.7354 78.7252 51.8674 79.0418L51.872 79.0552C54.7581 78.4045 57.3345 76.8227 59.1838 74.566C61.0332 72.3093 62.0472 69.5098 62.0617 66.6209V66.6164C62.0617 66.6164 61.9017 57.4055 61.8194 57.3431C61.547 56.4813 61.3602 55.596 61.2617 54.6993L61.2571 54.6324C61.0971 53.0096 60.992 51.3823 60.8411 49.7283C61.9703 47.7398 63.1543 45.3056 64.1966 42.7955L64.3703 42.323C65.3074 40.0537 66.0343 37.8914 66.6697 35.8272C66.8575 35.9572 67.0762 36.0385 67.3051 36.0635H67.3097L67.9543 36.117C68.7314 36.1972 69.4171 35.573 69.4811 34.6056L70.176 25.9965V25.9876C70.1756 25.6412 70.046 25.3067 69.8113 25.0467C69.5766 24.7866 69.2529 24.6187 68.9006 24.5743H68.8137C69.4225 20.0914 69.0454 15.5335 67.7074 11.2038L67.7669 11.4312C66.4774 8.639 64.5164 6.19139 62.0501 4.29606C59.5838 2.40072 56.6851 1.1136 53.6 0.543915L53.4811 0.526082C51.9854 0.233607 50.4667 0.0665522 48.9417 0.0267487H48.8457C47.2505 0.0546093 45.6615 0.230768 44.1006 0.552832L44.2651 0.526082C41.1816 1.08427 38.2801 2.3547 35.8034 4.23105C33.3267 6.10739 31.3469 8.53504 30.0297 11.3108L29.9794 11.4312C28.6633 15.7442 28.3125 20.2826 28.9509 24.7393L28.9326 24.5743C28.5793 24.6116 28.2526 24.7745 28.0148 25.032C27.7769 25.2894 27.6447 25.6233 27.6434 25.9698V26.001L28.3383 34.61C28.4023 35.5998 29.0971 36.1972 29.8469 36.117L29.8514 36.1036Z" fill="white"/>
<path d="M97.9018 93.0811C97.5818 79.5277 96.1921 76.4604 95.4424 74.3828C95.1452 73.5491 94.9029 67.9138 85.3578 64.258C79.5064 62.011 71.9544 61.9664 65.5635 59.3315V66.661C65.5569 70.4185 64.2105 74.0568 61.7552 76.9525C59.2998 79.8482 55.8883 81.8209 52.1052 82.5327L52.0001 82.5505C51.9316 82.9459 51.7229 83.3054 51.4104 83.5661C51.098 83.8269 50.7016 83.9723 50.2904 83.9772H50.2081V89.5055C50.2081 92.0997 51.2648 94.5877 53.1457 96.4221C55.0266 98.2565 57.5777 99.2871 60.2378 99.2871C62.8978 99.2871 65.4489 98.2565 67.3299 96.4221C69.2108 94.5877 70.2675 92.0997 70.2675 89.5055V85.6446C68.8869 85.4471 67.6283 84.7631 66.7299 83.7218C65.8315 82.6805 65.3556 81.3543 65.3921 79.9939C65.4286 78.6335 65.9751 77.3333 66.9281 76.3393C67.8811 75.3453 69.1746 74.7264 70.5639 74.5996C71.9533 74.4729 73.342 74.8471 74.4675 75.6515C75.5931 76.4559 76.3773 77.6347 76.6718 78.9649C76.9664 80.2951 76.7509 81.6844 76.0661 82.8701C75.3813 84.0558 74.2746 84.9557 72.9555 85.3994L72.9144 85.4128V89.715C72.9144 92.9951 71.5783 96.1408 69.2001 98.4601C66.822 100.779 63.5965 102.082 60.2332 102.082C56.87 102.082 53.6445 100.779 51.2663 98.4601C48.8881 96.1408 47.5521 92.9951 47.5521 89.715V89.4921V89.501V83.9237C47.1606 83.8976 46.7896 83.7435 46.4993 83.4862C46.2089 83.2289 46.016 82.8834 45.9521 82.5059V82.497C42.1648 81.7926 38.7466 79.8257 36.283 76.9334C33.8193 74.0411 32.4636 70.4033 32.4481 66.6432V59.2557C26.0298 61.9441 18.4321 61.9976 12.5486 64.249C2.97608 67.9004 2.75665 73.5224 2.46408 74.3695C1.73265 76.456 0.324649 79.5099 0.00464877 93.0722C-0.0502084 94.8555 0.00464903 97.5885 5.51779 99.9781C17.5224 104.57 32.9875 105.997 48.2332 107.022H49.6961C64.9738 106.006 80.4161 104.584 92.4115 99.9781C97.9018 97.6018 97.9521 94.8867 97.9018 93.0855V93.0811ZM30.7887 87.5527H25.0926V93.1301H21.0241V87.5706H15.3281V83.6027H21.0241V78.0476H25.0926V83.6027H30.7887V87.5527Z" fill="white"/>
<path d="M74.1714 80.094V80.0895C74.1708 79.2939 73.8463 78.5311 73.2691 77.9689C72.692 77.4067 71.9095 77.091 71.0937 77.0913C70.278 77.0916 69.4957 77.4078 68.919 77.9705C68.3423 78.5331 68.0183 79.2962 68.0183 80.0917C68.0183 80.8873 68.3423 81.6503 68.919 82.213C69.4957 82.7756 70.278 83.0919 71.0937 83.0922C71.9095 83.0925 72.692 82.7768 73.2691 82.2146C73.8463 81.6523 74.1708 80.8895 74.1714 80.094Z" fill="white"/>
</g>
<defs>
<clipPath id="clip0_83_85">
<rect width="96" height="107" fill="white"/>
</clipPath>
</defs>
</svg>
