<svg width="67" height="65" viewBox="0 0 67 65" fill="none" xmlns="http://www.w3.org/2000/svg">
<path fill-rule="evenodd" clip-rule="evenodd" d="M18.1738 16.2297C18.2533 15.2682 18.5115 14.3555 18.9149 13.5214H8.375V16.881L13.9583 20.9842V56.8967H53.0417V21.0316L59.3229 16.9284V13.52H34.1267C34.5315 14.3542 34.7884 15.2669 34.8693 16.2283H55.3964L50.25 19.5921V54.187H16.75V19.6395L12.1102 16.2297H18.1724H18.1738Z" fill="#265C00"/>
<path fill-rule="evenodd" clip-rule="evenodd" d="M13.9583 18.6198L10.4688 14.2188H18.4948L23.0312 23.0208H29.3125L34.1979 14.2188H57.2292L53.0417 19.6354V55.5208H47.4583V32.5H36.2917V55.5208H13.9583V18.6198ZM19.5417 32.5H29.3125V41.9792H19.5417V32.5Z" fill="#2DE15B"/>
<path d="M8.375 55.5208C8.375 55.88 8.52206 56.2244 8.78383 56.4784C9.0456 56.7323 9.40064 56.875 9.77083 56.875H57.2292C57.5994 56.875 57.9544 56.7323 58.2162 56.4784C58.4779 56.2244 58.625 55.88 58.625 55.5208C58.625 55.1617 58.4779 54.8173 58.2162 54.5633C57.9544 54.3093 57.5994 54.1667 57.2292 54.1667H9.77083C9.40064 54.1667 9.0456 54.3093 8.78383 54.5633C8.52206 54.8173 8.375 55.1617 8.375 55.5208Z" fill="#265C00"/>
<path fill-rule="evenodd" clip-rule="evenodd" d="M34.8959 16.25C34.8959 17.317 34.6792 18.3735 34.2584 19.3593C33.8375 20.3451 33.2206 21.2408 32.4429 21.9952C31.6652 22.7497 30.742 23.3482 29.7258 23.7565C28.7097 24.1648 27.6207 24.375 26.5209 24.375C25.4211 24.375 24.332 24.1648 23.3159 23.7565C22.2998 23.3482 21.3765 22.7497 20.5989 21.9952C19.8212 21.2408 19.2043 20.3451 18.7834 19.3593C18.3625 18.3735 18.1459 17.317 18.1459 16.25C18.1459 14.0951 19.0282 12.0285 20.5989 10.5048C22.1695 8.98102 24.2997 8.125 26.5209 8.125C28.7421 8.125 30.8723 8.98102 32.4429 10.5048C34.0135 12.0285 34.8959 14.0951 34.8959 16.25ZM27.9167 12.1875V14.8958H30.7084V17.6042H27.9167V20.3125H25.125V17.6042H22.3334V14.8958H25.125V12.1875H27.9167Z" fill="#265C00"/>
</svg>
