<svg width="120" height="114" viewBox="0 0 120 114" fill="none" xmlns="http://www.w3.org/2000/svg">
<path fill-rule="evenodd" clip-rule="evenodd" d="M32.55 28.4644C32.6925 26.7781 33.155 25.1774 33.8775 23.7144H15V29.6068L25 36.803V99.788H95V36.8861L106.25 29.6899V23.712H61.1225C61.8475 25.175 62.3075 26.7758 62.4525 28.462H99.2175L90 34.3615V95.0356H30V34.4446L21.69 28.4644H32.5475H32.55Z" fill="white"/>
<path fill-rule="evenodd" clip-rule="evenodd" d="M25 32.6562L18.75 24.9375H33.125L41.25 40.375H52.5L61.25 24.9375H102.5L95 34.4375V97.375H85V57H65V97.375H25V32.6562ZM35 57H52.5V73.625H35V57Z" fill="white"/>
<path d="M15 97.375C15 98.0049 15.2634 98.609 15.7322 99.0544C16.2011 99.4998 16.837 99.75 17.5 99.75H102.5C103.163 99.75 103.799 99.4998 104.268 99.0544C104.737 98.609 105 98.0049 105 97.375C105 96.7451 104.737 96.141 104.268 95.6956C103.799 95.2502 103.163 95 102.5 95H17.5C16.837 95 16.2011 95.2502 15.7322 95.6956C15.2634 96.141 15 96.7451 15 97.375Z" fill="white"/>
<path fill-rule="evenodd" clip-rule="evenodd" d="M62.5 28.5C62.5 30.3713 62.112 32.2243 61.3582 33.9532C60.6044 35.6821 59.4995 37.253 58.1066 38.5763C56.7137 39.8995 55.0601 40.9492 53.2403 41.6653C51.4204 42.3814 49.4698 42.75 47.5 42.75C45.5302 42.75 43.5796 42.3814 41.7597 41.6653C39.9399 40.9492 38.2863 39.8995 36.8934 38.5763C35.5005 37.253 34.3956 35.6821 33.6418 33.9532C32.888 32.2243 32.5 30.3713 32.5 28.5C32.5 24.7207 34.0804 21.0961 36.8934 18.4237C39.7064 15.7513 43.5218 14.25 47.5 14.25C51.4782 14.25 55.2936 15.7513 58.1066 18.4237C60.9196 21.0961 62.5 24.7207 62.5 28.5ZM50 21.375V26.125H55V30.875H50V35.625H45V30.875H40V26.125H45V21.375H50Z" fill="white"/>
</svg>
