<svg width="68" height="74" viewBox="0 0 68 74" fill="none" xmlns="http://www.w3.org/2000/svg">
<path d="M22.6666 18.5C22.6666 11.6858 27.7383 6.16667 34 6.16667C40.2616 6.16667 45.3333 11.6858 45.3333 18.5C45.3333 25.3142 40.2616 30.8333 34 30.8333C27.7383 30.8333 22.6666 25.3142 22.6666 18.5ZM48.1666 67.8333H51C54.1166 67.8333 56.6666 65.0583 56.6666 61.6667V46.9283C56.6666 43.475 54.9383 40.2992 52.105 38.7267C50.8866 38.0483 49.5833 37.4008 48.1666 36.815V67.8333ZM34.9633 52.4167L42.5 34.9342C39.865 34.2867 37.0316 33.9167 34 33.9167C26.8316 33.9167 20.655 36.075 15.895 38.7267C14.5125 39.5016 13.3543 40.6782 12.5491 42.126C11.7439 43.5738 11.323 45.2361 11.3333 46.9283V67.8333H17.9633C17.34 66.4458 17 64.8733 17 63.2083C17 57.2575 21.4483 52.4167 26.9166 52.4167H34.9633ZM28.3333 67.8333L32.3283 58.5833H26.9166C24.565 58.5833 22.6666 60.6492 22.6666 63.2083C22.6666 65.7675 24.565 67.8333 26.9166 67.8333H28.3333Z" fill="#2DE15B"/>
</svg>
