<svg width="108" height="119" viewBox="0 0 108 119" fill="none" xmlns="http://www.w3.org/2000/svg">
<path d="M36 29.75C36 18.7921 44.055 9.91666 54 9.91666C63.945 9.91666 72 18.7921 72 29.75C72 40.7079 63.945 49.5833 54 49.5833C44.055 49.5833 36 40.7079 36 29.75ZM76.5 109.083H81C85.95 109.083 90 104.621 90 99.1667V75.4658C90 69.9125 87.255 64.8054 82.755 62.2767C80.82 61.1858 78.75 60.1446 76.5 59.2025V109.083ZM55.53 84.2917L67.5 56.1779C63.315 55.1367 58.815 54.5417 54 54.5417C42.615 54.5417 32.805 58.0125 25.245 62.2767C23.0493 63.5228 21.2099 65.4149 19.931 67.7431C18.652 70.0713 17.9837 72.7445 18 75.4658V109.083H28.53C27.54 106.852 27 104.323 27 101.646C27 92.0762 34.065 84.2917 42.75 84.2917H55.53ZM45 109.083L51.345 94.2083H42.75C39.015 94.2083 36 97.5304 36 101.646C36 105.761 39.015 109.083 42.75 109.083H45Z" fill="white"/>
</svg>
